<svg xmlns="http://www.w3.org/2000/svg" viewBox="0 0 800 500" role="img" aria-hidden="true">
  <defs>
    <linearGradient id="as-highlight-interior" x1="0%" y1="0%" x2="100%" y2="100%">
      <stop offset="0%" stop-color="#5ec8ff" stop-opacity="0.7"/>
      <stop offset="100%" stop-color="#0082c6" stop-opacity="0.2"/>
    </linearGradient>
    <filter id="as-glow-interior" x="-80%" y="-80%" width="260%" height="260%">
      <feGaussianBlur stdDeviation="4" result="b"/>
      <feMerge><feMergeNode in="b"/><feMergeNode in="SourceGraphic"/></feMerge>
    </filter>
  </defs>
  <g id="vehicle-base" opacity="0.35">
    <path fill="none" stroke="#3d5a73" stroke-width="1.2" d="M80 320 L140 280 L220 250 L380 230 L520 235 L640 260 L720 300 L740 340 L720 380 L640 400 L400 410 L180 400 L100 370 Z"/>
    <path fill="none" stroke="#2a4560" stroke-width="0.8" d="M200 250 L200 400 M380 230 L380 410 M520 235 L520 405"/>
    <path fill="none" stroke="#2a4560" stroke-width="0.6" d="M240 280 L340 270 L340 390 L240 385 Z"/>
    <ellipse fill="none" stroke="#2a4560" stroke-width="0.8" cx="620" cy="350" rx="55" ry="35"/>
    <ellipse fill="none" stroke="#2a4560" stroke-width="0.8" cx="200" cy="350" rx="50" ry="32"/>
  </g>
  <g id="front-door" class="as-component" data-component="front-door">
    <ellipse class="as-highlight-region" cx="128" cy="242" rx="44" ry="52"/>
    <path class="as-outline" d="M94 182 L184 172 L194 302 L98 310 Z"/>
    <line class="as-connector" x1="128" y1="242" x2="230" y2="242"/>
    <circle class="as-hotspot" cx="128" cy="242" r="7"/>
    <circle class="as-hotspot-ring" cx="128" cy="242" r="14"/>
  </g>
  <g id="back-door" class="as-component" data-component="back-door">
    <ellipse class="as-highlight-region" cx="278" cy="268" rx="48" ry="40"/>
    <path class="as-outline" d="M238 232 L318 226 L325 304 L232 310 Z"/>
    <line class="as-connector" x1="278" y1="268" x2="350" y2="268"/>
    <circle class="as-hotspot" cx="278" cy="268" r="7"/>
    <circle class="as-hotspot-ring" cx="278" cy="268" r="14"/>
  </g>
  <g id="tail-gate" class="as-component" data-component="tail-gate">
    <ellipse class="as-highlight-region" cx="656" cy="70" rx="48" ry="36"/>
    <path class="as-outline" d="M612 48 L700 42 L708 98 L608 104 Z"/>
    <line class="as-connector" x1="656" y1="70" x2="730" y2="70"/>
    <circle class="as-hotspot" cx="656" cy="70" r="7"/>
    <circle class="as-hotspot-ring" cx="656" cy="70" r="14"/>
  </g>
  <g id="console-structure" class="as-component" data-component="console-structure">
    <ellipse class="as-highlight-region" cx="352" cy="260" rx="50" ry="38"/>
    <path class="as-outline" d="M308 228 L396 222 L402 298 L302 304 Z"/>
    <line class="as-connector" x1="352" y1="260" x2="280" y2="260"/>
    <circle class="as-hotspot" cx="352" cy="260" r="7"/>
    <circle class="as-hotspot-ring" cx="352" cy="260" r="14"/>
  </g>
  <g id="console-back-cover" class="as-component" data-component="console-back-cover">
    <ellipse class="as-highlight-region" cx="400" cy="260" rx="44" ry="32"/>
    <path class="as-outline" d="M362 238 L438 234 L442 282 L358 286 Z"/>
    <line class="as-connector" x1="400" y1="260" x2="470" y2="260"/>
    <circle class="as-hotspot" cx="400" cy="260" r="7"/>
    <circle class="as-hotspot-ring" cx="400" cy="260" r="14"/>
  </g>
</svg>
